<?xml version="1.0" standalone="no"?>
<!DOCTYPE svg PUBLIC "-//W3C//DTD SVG 20010904//EN"
 "http://www.w3.org/TR/2001/REC-SVG-20010904/DTD/svg10.dtd">
<svg version="1.0" xmlns="http://www.w3.org/2000/svg"
 width="200.000000pt" height="200.000000pt" viewBox="0 0 200.000000 200.000000"
 preserveAspectRatio="xMidYMid meet">

<g transform="translate(0.000000,200.000000) scale(0.100000,-0.100000)"
 stroke="none">
<path d="M784 1430 c-57 -101 -72 -120 -92 -120 -13 0 -22 -4 -20 -9 2 -4 39
-70 82 -145 l80 -136 166 0 166 0 81 143 c79 137 81 142 58 145 -19 3 -38 27
-92 123 l-68 119 -146 0 -147 0 -68 -120z m361 42 c12 -20 37 -66 57 -102 l37
-65 -58 -100 -57 -100 -124 0 -124 0 -57 100 -58 100 37 65 c20 36 45 82 57
102 l20 38 125 0 125 0 20 -38z"/>
<path d="M310 1283 c0 -5 9 -23 20 -40 l20 -33 119 0 119 0 62 -105 61 -105
-61 -105 -62 -105 -119 0 -119 0 -20 -32 c-11 -18 -20 -36 -20 -40 0 -5 73 -8
163 -8 l162 0 83 145 82 145 -67 118 c-36 64 -75 129 -85 145 l-19 27 -160 0
c-87 0 -159 -3 -159 -7z"/>
<path d="M1363 1278 c-6 -7 -45 -73 -87 -146 l-76 -132 82 -145 83 -144 163
-1 c89 0 162 2 162 5 0 2 -8 20 -17 40 l-17 35 -121 0 -122 0 -61 105 -60 105
60 105 61 105 121 0 121 0 18 31 c9 17 17 35 17 40 0 15 -316 12 -327 -3z"/>
<path d="M752 838 c-78 -135 -81 -143 -59 -146 17 -2 39 -31 92 -122 l70 -120
145 0 146 0 69 120 c58 101 72 120 93 120 29 0 34 -13 -62 153 l-80 137 -166
0 -167 0 -81 -142z m429 -44 l59 -101 -61 -107 -61 -106 -118 0 -118 0 -61
106 c-34 58 -59 109 -57 112 2 4 29 51 60 105 l58 98 120 -3 120 -3 59 -101z"/>
</g>
</svg>
